<svg xmlns="http://www.w3.org/2000/svg" width="50" height="50" viewBox="0 0 50 50">
  <g id="RoundUser" transform="translate(-47 -595)">
    <g id="Ellipse_7" data-name="Ellipse 7" transform="translate(47 595)" fill="#fff" stroke="#c4c9d7" stroke-width="1">
      <circle cx="25" cy="25" r="25" stroke="none"/>
      <circle cx="25" cy="25" r="24.5" fill="none"/>
    </g>
    <g id="user" transform="translate(62 607.964)">
      <path id="Path_20" data-name="Path 20" d="M92.794,11.58a5.562,5.562,0,0,0,4.074-1.7A5.616,5.616,0,0,0,98.556,5.79,5.617,5.617,0,0,0,96.868,1.7a5.741,5.741,0,0,0-8.148,0A5.616,5.616,0,0,0,87.032,5.79,5.616,5.616,0,0,0,88.72,9.884,5.563,5.563,0,0,0,92.794,11.58Zm0,0" transform="translate(-82.946)" fill="#c4c9d7"/>
      <path id="Path_21" data-name="Path 21" d="M19.951,254.189a14.339,14.339,0,0,0-.194-1.519,12,12,0,0,0-.373-1.527,7.554,7.554,0,0,0-.626-1.424,5.374,5.374,0,0,0-.944-1.234,4.162,4.162,0,0,0-1.356-.854,4.676,4.676,0,0,0-1.731-.314,1.754,1.754,0,0,0-.938.4c-.281.184-.61.4-.978.632a5.593,5.593,0,0,1-1.265.559,4.9,4.9,0,0,1-3.094,0,5.582,5.582,0,0,1-1.264-.559c-.364-.233-.693-.446-.978-.632a1.752,1.752,0,0,0-.938-.4,4.67,4.67,0,0,0-1.731.315,4.158,4.158,0,0,0-1.356.854,5.374,5.374,0,0,0-.944,1.234,7.569,7.569,0,0,0-.626,1.424,12.023,12.023,0,0,0-.372,1.527,14.289,14.289,0,0,0-.194,1.519c-.032.46-.048.937-.048,1.42a4,4,0,0,0,1.182,3.02,4.249,4.249,0,0,0,3.046,1.114H15.771a4.248,4.248,0,0,0,3.046-1.114A4,4,0,0,0,20,255.609c0-.484-.016-.962-.048-1.42Zm0,0" transform="translate(0 -235.771)" fill="#c4c9d7"/>
    </g>
  </g>
</svg>
